# xmcd
#
# Track frame offsets:
#	150
#	11658
#	22993
#	36114
#	48627
#	60533
#	71726
#	84662
#	97852
#	111026
#	122864
#	134331
#	147330
#	160298
#	173455
#	184060
#	197635
#	210130
#	222929
#	237341
#	248868
#	262189
#	276877
#	289488
#	302680
#
# Disc length: 4203 seconds
# Revision: 0
# Processed by: cddbd v1.5.2PL0 Copyright (c) Steve Scherf et al.
# Submitted via: dBpowerAMP V12.0
#
DISCID=6f106919
DTITLE=Sister Rosetta Tharpe - Up Above My Head
DYEAR=1947
DGENRE=Blues
TTITLE0=Up Above My Head I Hear Music In The Air
TTITLE1=Down By The Riverside
TTITLE2=Ain't No Grave Hold Body Down
TTITLE3=Everybody's Gonna Have A Wonderful Time Up There
TTITLE4=Didn't It Rain
TTITLE5=Trouble In Mind
TTITLE6=Strange Things Happening Every Day
TTITLE7=When I Move To The Sky
TTITLE8=Singing In My Soul
TTITLE9=Nobody Knows, Nobody Cares
TTITLE10=What Is The Soul Of Man?
TTITLE11=Precious Memories
TTITLE12=Stand By Me
TTITLE13=God's Mighty Hand
TTITLE14=Sit Down
TTITLE15=Jonah
TTITLE16=I Heard My Mother Call My Name
TTITLE17=Jesus Is Here To Stay
TTITLE18=The Lord Followed Me
TTITLE19=I Want To Live So God Can Use Me
TTITLE20=How Far From God
TTITLE21=The Natural Facts
TTITLE22=Saviour Don't Pass Me By
TTITLE23=I'm In His Care
TTITLE24=The Devil Has Thrown Him Down
EXTD=
EXTT0=
EXTT1=
EXTT2=
EXTT3=
EXTT4=
EXTT5=
EXTT6=
EXTT7=
EXTT8=
EXTT9=
EXTT10=
EXTT11=
EXTT12=
EXTT13=
EXTT14=
EXTT15=
EXTT16=
EXTT17=
EXTT18=
EXTT19=
EXTT20=
EXTT21=
EXTT22=
EXTT23=
EXTT24=
PLAYORDER=
